<svg width="961" height="128" viewBox="0 0 961 128" fill="none" xmlns="http://www.w3.org/2000/svg">
<g clip-path="url(#clip0_2995_14443)">
<g clip-path="url(#clip1_2995_14443)">
<path d="M62.8154 0.155273C68.4752 0.155315 73.9949 0.915383 79.3447 2.44531C84.6947 3.98531 89.5949 6.1052 94.0449 8.8252C98.4949 11.5552 103.265 15.5454 108.365 20.8154L91.9551 37.1348C88.2752 33.1049 85.1353 30.2948 82.5254 28.6748C79.9154 27.0548 76.9746 25.8146 73.6846 24.9346C70.3947 24.0547 66.8244 23.6152 62.9746 23.6152C51.8748 23.6153 42.6245 27.2452 35.2246 34.4951C27.8348 41.7451 24.1348 51.5455 24.1348 63.7354C24.1348 75.9252 27.8046 85.7554 35.1445 93.2354C42.4845 100.715 51.7654 104.455 62.9854 104.455C66.8952 104.455 70.6452 103.875 74.2451 102.715C77.845 101.555 81.1854 99.965 84.2754 97.9551V97.9648C87.3652 95.9549 90.6051 92.905 94.0049 88.8252L110.925 105.405C105.425 111.525 100.325 115.985 95.625 118.795C90.9251 121.595 85.8151 123.805 80.2852 125.425C74.7653 127.035 68.9652 127.845 62.9053 127.845C44.7153 127.845 29.6945 121.855 17.8545 109.865C6.00458 97.8753 0.0849609 82.5949 0.0849609 63.835C0.0849779 45.075 6.03459 29.7746 17.9346 17.9346C29.8346 6.0846 44.7955 0.165273 62.8154 0.155273ZM496.305 34.7646C522.005 34.7646 542.845 55.6048 542.845 81.3047C542.845 107.005 522.005 127.845 496.305 127.845C470.605 127.845 449.765 107.005 449.765 81.3047C449.765 55.6049 470.605 34.7648 496.305 34.7646ZM325.635 34.7646C330.845 34.7646 335.945 35.7953 340.935 37.8652C345.915 39.9352 349.855 43.0649 352.745 47.2549H353.085V37.6553H375.865V124.855H353.085V113.975H352.405C349.965 117.835 346.245 121.105 341.225 123.795C336.205 126.485 330.275 127.835 323.415 127.835C311.745 127.835 302.095 123.635 294.475 115.215C286.855 106.805 283.045 94.7747 283.045 81.0049C283.045 67.235 287.105 56.0847 295.205 47.5547C303.305 39.0249 313.455 34.7647 325.635 34.7646ZM229.104 34.7646C241.944 34.7646 252.485 38.6548 260.725 46.4346L260.735 46.4551C268.965 54.235 273.085 64.1951 273.085 76.335V89.7646H207.695C208.835 94.1946 210.825 97.9952 213.695 101.115C218.445 106.285 224.625 108.865 232.225 108.865C235.675 108.865 238.715 108.405 241.335 107.475C243.955 106.545 246.315 105.315 248.415 103.765C250.515 102.225 252.955 99.6546 255.715 96.0547L270.745 106.755C266.835 112.205 262.945 116.275 259.085 118.975C255.225 121.675 251.005 123.705 246.425 125.085C241.845 126.455 236.215 127.145 229.535 127.146C215.775 127.146 204.645 122.805 196.145 114.125C187.655 105.445 183.405 94.2649 183.405 80.9551C183.405 67.6452 187.645 56.615 196.145 47.875C204.634 39.1351 215.625 34.7648 229.104 34.7646ZM168.145 34.6846C169.675 34.6846 171.265 34.8255 172.905 35.1055C174.545 35.3955 176.726 35.9856 179.445 36.8955V59.5049C175.816 58.205 173.005 57.3351 171.025 56.915C169.045 56.485 167.175 56.2754 165.415 56.2754C159.405 56.2754 154.435 58.4454 150.495 62.7754C146.555 67.1154 144.585 72.6556 144.585 79.3955V124.865H120.785V37.6455H143.645V51.0752H144.155C145.855 46.3152 148.985 42.3947 153.545 39.3047C158.105 36.2147 162.965 34.6748 168.125 34.6748L168.145 34.6846ZM428.675 37.6553H445.755V56.0947H428.675V124.865H404.875V56.0947H387.785V37.6553H404.875V19.9053L428.675 13.6846V37.6553ZM601.595 34.6846C603.125 34.6846 604.715 34.8255 606.355 35.1055H606.375C608.015 35.3955 610.195 35.9855 612.915 36.8955V59.5049C609.285 58.2049 606.475 57.3351 604.495 56.915C602.515 56.485 600.645 56.2754 598.885 56.2754C592.875 56.2754 587.905 58.4454 583.965 62.7754C580.025 67.1154 578.055 72.6556 578.055 79.3955V124.865H554.255V37.6553H577.115V51.085H577.625C579.325 46.3251 582.455 42.4054 587.015 39.3154C591.575 36.2255 596.435 34.6846 601.595 34.6846ZM329.965 54.4854C323.225 54.4854 317.595 56.8751 313.095 61.665C308.585 66.455 306.335 72.8651 306.335 80.915C306.335 89.6448 308.645 96.3146 313.265 100.935C317.885 105.555 323.385 107.865 329.965 107.865C336.545 107.865 342.085 105.435 346.585 100.595H346.575C351.085 95.7448 353.335 89.1849 353.335 80.915C353.335 72.6451 350.995 66.1651 346.325 61.4951C341.655 56.8251 336.195 54.4854 329.965 54.4854ZM496.305 56.2754C482.485 56.2755 471.276 67.4849 471.275 81.3047C471.275 95.1246 482.485 106.335 496.305 106.335C510.125 106.335 521.335 95.1247 521.335 81.3047C521.335 67.4849 510.125 56.2754 496.305 56.2754ZM228.935 53.5654C222.255 53.5655 216.855 55.935 212.735 60.6846C209.985 63.8446 208.185 67.8054 207.265 72.5254H250.275C249.875 67.0254 247.785 62.485 244.015 58.915C240.235 55.3451 235.214 53.5654 228.935 53.5654Z" fill="currentColor"/>
</g>
<path d="M812.21 89.2051C812.21 95.2648 813.62 99.9246 816.42 103.185C819.22 106.445 823.2 108.075 828.36 108.075C833.86 108.075 838.43 105.975 842.09 101.785C845.74 97.5952 847.57 92.5251 847.57 86.5752H847.561V36.165H871.36V123.365H849.011V111.725H848.42C846.04 115.975 842.37 119.475 837.41 122.225C832.45 124.975 826.83 126.345 820.54 126.345C810.45 126.345 802.58 123.435 796.91 117.595C791.24 111.755 788.41 103.545 788.41 92.9453V36.165H812.21V89.2051ZM922.431 33.2646C927.64 33.2647 932.35 33.8149 936.54 34.9248C940.73 36.0248 944.491 37.5248 947.801 39.4248C951.111 41.3248 954.871 44.7352 959.061 49.665L944.521 61.1455C941.861 58.0855 939.41 55.9346 937.17 54.6846C934.93 53.4447 932.56 52.5148 930.07 51.9248C927.58 51.3348 925 51.0352 922.34 51.0352C918.37 51.0352 915.16 51.8251 912.69 53.415C910.22 55.005 908.99 56.9052 908.99 59.1152C908.99 61.4951 910.071 63.4554 912.221 64.9854C914.381 66.5053 920.021 68.355 929.141 70.5049C940.36 73.1748 948.46 76.7249 953.45 81.1748V81.1455C958.44 85.5954 960.931 91.105 960.931 97.6748C960.931 106.175 957.46 113.075 950.521 118.375C943.581 123.675 934.41 126.325 923.021 126.325C917.071 126.325 911.82 125.655 907.29 124.325C902.76 122.995 898.651 121.115 894.971 118.675C891.291 116.235 887.26 112.045 882.9 106.095L898.12 94.4453C901.29 98.5253 904.07 101.405 906.45 103.075C908.83 104.755 911.401 106.025 914.181 106.905C916.951 107.785 920.27 108.225 924.12 108.225C928.59 108.225 932.12 107.425 934.7 105.805C937.28 104.195 938.57 101.855 938.57 98.7949C938.57 96.245 937.42 94.2346 935.13 92.7646C932.84 91.2947 927.27 89.5349 918.431 87.4951C907.321 84.9451 899.28 81.415 894.29 76.915C889.3 72.4051 886.811 66.695 886.811 59.7852C886.811 51.7952 890.201 45.3752 896.971 40.5352C903.741 35.6853 912.231 33.2646 922.431 33.2646ZM690.04 1.65527C702.55 1.65527 713.051 5.21535 721.261 12.2354C729.35 19.1653 733.46 28.5652 733.46 40.165C733.46 53.975 729.02 64.8552 721.38 71.8252C713.6 78.925 703.49 83.1152 690.04 83.1152H652.32V123.375H629.07V1.65527H690.04ZM770.351 123.375H746.551V1.65527H770.351V123.375ZM652.32 22.9648V62.2754H687.28C693.67 62.2754 699.071 60.3953 703.311 56.6953V56.7051C707.65 52.9151 709.86 47.885 709.86 41.7451C709.86 36.0851 707.79 31.6348 703.7 27.8848C699.68 24.1849 694.47 22.9649 688.23 22.9648H652.32Z" fill="currentColor"/>
</g>
<defs>
<clipPath id="clip0_2995_14443">
<rect width="961" height="128" fill="white"/>
</clipPath>
<clipPath id="clip1_2995_14443">
<rect width="613" height="128" fill="white"/>
</clipPath>
</defs>
</svg>
